<?xml version="1.0" standalone="no"?>
<!DOCTYPE svg PUBLIC "-//W3C//DTD SVG 20010904//EN"
 "http://www.w3.org/TR/2001/REC-SVG-20010904/DTD/svg10.dtd">
<svg version="1.0" xmlns="http://www.w3.org/2000/svg"
 width="953.000000pt" height="930.000000pt" viewBox="0 0 953.000000 930.000000"
 preserveAspectRatio="xMidYMid meet">

<g transform="translate(0.000000,930.000000) scale(0.100000,-0.100000)"
fill="#000000" stroke="none">
<path d="M4490 9284 c-444 -39 -848 -151 -1261 -352 -470 -229 -836 -520
-1158 -922 -181 -225 -292 -401 -416 -656 -156 -324 -245 -614 -284 -934 -14
-107 -14 -606 -1 -721 12 -109 59 -316 107 -477 l36 -124 -46 -146 c-62 -197
-71 -245 -71 -392 2 -472 256 -905 647 -1101 l78 -40 -22 -37 c-55 -90 -57
-92 -110 -92 -140 0 -377 167 -503 354 -112 167 -172 324 -200 524 -8 57 -16
106 -19 108 -6 6 -124 -83 -207 -156 -69 -61 -221 -227 -315 -345 -166 -206
-313 -472 -389 -705 -69 -210 -88 -317 -94 -521 -5 -201 7 -317 44 -422 30
-82 114 -250 148 -292 l22 -28 52 67 c160 203 291 269 466 236 81 -15 150 -58
258 -159 l77 -72 45 71 c56 86 113 149 188 207 53 41 184 110 193 102 2 -2 -8
-46 -21 -97 -50 -191 -70 -428 -49 -578 23 -164 108 -382 168 -432 19 -16 22
-4 57 173 12 61 35 153 52 205 30 96 137 325 147 315 3 -3 13 -47 24 -98 65
-324 237 -627 509 -894 240 -236 521 -382 815 -424 51 -7 95 -10 99 -7 3 3
-13 77 -35 163 -23 86 -48 196 -57 243 -17 94 -31 471 -20 517 7 27 9 24 63
-56 128 -193 306 -385 454 -491 113 -80 387 -214 404 -196 2 2 -4 46 -15 98
-20 97 -54 440 -44 440 1 0 37 -65 79 -144 98 -182 320 -496 351 -496 29 0
259 336 362 529 49 91 51 93 58 65 9 -33 -8 -219 -35 -379 -10 -60 -17 -111
-16 -112 1 -2 33 8 71 21 282 96 565 325 752 610 91 139 91 139 103 110 8 -20
9 -79 5 -189 -11 -267 -25 -357 -93 -598 -20 -70 -33 -130 -29 -134 12 -13
237 28 324 59 249 87 494 253 672 453 231 258 356 496 431 821 l23 99 66 -137
c78 -161 99 -224 143 -417 17 -79 37 -146 44 -148 16 -6 90 121 119 205 46
134 57 207 58 387 1 181 -10 257 -60 423 -14 46 -24 88 -22 93 4 13 103 -35
173 -86 73 -52 138 -121 209 -222 l50 -73 31 29 c16 15 55 51 85 80 30 28 89
68 129 89 72 35 79 37 175 37 89 0 108 -3 158 -27 72 -34 145 -101 217 -201
l56 -79 26 31 c83 100 160 286 180 436 15 114 5 442 -16 540 -36 167 -114 393
-186 540 -92 190 -285 448 -486 653 -190 193 -297 276 -316 245 -3 -5 -10 -51
-16 -103 -30 -250 -128 -448 -325 -658 -72 -77 -211 -161 -327 -197 -80 -25
-98 -18 -137 57 -17 35 -32 66 -32 70 0 4 28 21 62 38 473 235 736 795 625
1330 -13 64 -41 157 -61 208 l-37 92 31 96 c107 334 146 608 137 958 -17 655
-249 1271 -692 1841 -198 255 -372 424 -634 618 -467 346 -998 562 -1610 657
-102 16 -195 22 -390 24 -141 2 -276 2 -301 0z m554 -339 c318 -37 633 -126
953 -268 287 -127 643 -355 871 -556 98 -86 422 -450 422 -474 0 -5 -44 31
-97 80 -192 174 -513 424 -513 399 0 -2 32 -44 70 -92 59 -75 204 -281 235
-334 10 -18 -11 0 -182 143 -201 170 -567 438 -670 491 -31 16 -33 16 -33 -2
0 -10 18 -43 40 -72 22 -29 40 -55 40 -57 0 -2 -26 13 -57 33 -308 197 -490
288 -718 358 -253 77 -320 86 -665 86 -292 0 -358 -6 -511 -45 -246 -62 -501
-170 -779 -329 -63 -36 -116 -63 -119 -60 -2 2 10 25 28 50 18 26 30 48 28 50
-8 8 -127 -64 -300 -182 -239 -162 -373 -264 -505 -382 -62 -56 -115 -102
-118 -102 -11 0 252 344 346 452 44 50 49 59 25 44 -86 -54 -360 -271 -525
-415 -47 -41 -96 -84 -110 -95 -29 -24 -35 -33 70 99 82 102 319 344 435 445
274 235 728 479 1135 609 179 57 421 108 620 130 129 14 446 12 584 -4z m1126
-666 c0 -16 -38 9 -51 33 -11 21 -11 21 20 -1 17 -12 31 -27 31 -32z m-2300 1
c112 -60 -64 -240 -235 -240 -53 0 -62 -3 -92 -32 -31 -30 -33 -30 -33 -10 0
71 80 196 157 243 73 45 160 62 203 39z m1916 -28 c32 -17 71 -43 85 -59 46
-49 112 -203 95 -220 -3 -4 -20 10 -37 30 -27 32 -36 37 -74 37 -87 0 -223 73
-265 143 -26 42 -25 53 6 84 23 23 31 25 78 20 30 -3 79 -19 112 -35z m-2331
-691 c-16 -10 -61 -37 -100 -59 -38 -22 -119 -75 -178 -117 l-109 -77 41 -35
c76 -65 90 -127 46 -213 -36 -72 -97 -105 -191 -105 -61 0 -76 4 -114 29 l-43
28 -19 -23 c-10 -13 -43 -64 -74 -114 -62 -100 -65 -85 -13 51 75 195 162 317
304 425 92 71 152 103 325 175 129 54 178 68 125 35z m2735 -53 c249 -109 402
-231 498 -397 45 -77 145 -317 140 -333 -2 -6 -32 33 -67 85 -34 52 -72 103
-83 113 -19 18 -21 18 -58 -4 -44 -25 -118 -29 -181 -10 -72 21 -159 118 -159
175 0 35 48 120 81 143 l32 24 -44 39 c-24 22 -102 78 -174 125 -71 46 -134
89 -140 94 -16 17 31 0 155 -54z m-2841 -1644 c208 -69 392 -260 455 -473 81
-275 -53 -625 -297 -779 -105 -66 -195 -94 -324 -100 -190 -8 -317 37 -416
147 -88 97 -90 193 -8 278 24 26 44 32 116 35 60 4 71 20 110 154 20 71 25
108 23 173 l-3 82 -45 -68 c-58 -86 -96 -107 -206 -111 -93 -4 -142 14 -189
70 -45 53 -57 94 -53 173 5 97 42 170 133 260 85 85 179 137 307 171 127 33
273 29 397 -12z m3081 26 c147 -18 262 -68 375 -163 99 -83 199 -248 229 -377
74 -310 -114 -677 -404 -789 -235 -91 -488 -59 -629 80 -59 58 -83 108 -83
169 0 109 91 182 189 152 l35 -11 33 73 c62 134 90 279 66 341 -7 18 -10 15
-29 -21 -43 -85 -154 -154 -247 -154 -111 0 -213 81 -235 186 -23 108 22 218
134 330 56 56 91 81 166 117 145 70 241 86 400 67z m-4543 -762 c1 -87 23
-212 57 -335 13 -45 13 -60 0 -120 -35 -156 -27 -395 17 -553 33 -121 105
-245 240 -416 35 -43 56 -74 48 -68 -266 198 -437 424 -498 658 -39 150 -36
328 11 546 26 124 108 380 121 380 1 0 3 -42 4 -92z m5767 -98 c67 -234 79
-307 79 -495 1 -157 -1 -177 -26 -260 -61 -199 -171 -365 -356 -536 -82 -77
-162 -133 -131 -93 8 10 37 44 65 75 90 102 171 256 223 424 21 70 25 105 29
273 5 158 2 206 -11 262 l-17 68 31 103 c19 66 35 149 43 227 13 144 16 143
71 -48z m-4802 -635 c69 -24 131 -83 131 -123 0 -64 -83 -115 -218 -133 -159
-21 -312 6 -372 66 -78 78 -22 164 132 206 51 14 274 3 327 -16z m4138 0 c109
-45 136 -93 97 -173 -34 -71 -263 -113 -430 -77 -85 18 -130 45 -152 91 -16
33 -15 37 3 72 20 40 69 73 142 97 65 21 279 15 340 -10z m-2766 -447 c-29
-83 -45 -217 -55 -463 -6 -138 -9 -273 -7 -300 l3 -50 24 70 c42 124 83 230
94 240 7 7 8 4 3 -9 -22 -62 -62 -366 -77 -582 -16 -243 -1 -425 60 -696 10
-49 17 -88 15 -88 -8 0 -34 60 -84 195 -28 77 -56 144 -61 149 -5 6 -16 3 -27
-7 -29 -26 -38 -7 -62 123 -33 184 -40 312 -30 595 8 232 11 271 35 359 49
183 163 506 179 506 3 0 -2 -19 -10 -42z m1110 -198 c85 -259 110 -404 123
-695 9 -210 -18 -436 -78 -657 l-23 -83 -10 37 c-6 20 -14 39 -17 43 -4 3 -20
-30 -37 -73 -49 -128 -94 -233 -98 -229 -2 2 5 39 16 83 10 43 29 147 41 229
18 128 21 174 15 315 -8 200 -29 393 -61 577 -13 76 -22 139 -20 141 1 2 29
-63 61 -145 l59 -148 3 70 c5 114 -17 554 -33 640 -17 95 -17 94 -5 75 6 -8
34 -89 64 -180z m-2108 58 c-345 -477 -595 -1140 -596 -1580 0 -57 -4 -109 -8
-116 -9 -14 -70 260 -79 352 -6 72 20 265 53 395 54 208 169 440 311 628 62
82 375 423 389 423 2 0 -29 -46 -70 -102z m3144 -94 c168 -172 274 -322 378
-529 74 -148 113 -263 147 -436 39 -195 38 -294 -4 -499 -18 -91 -36 -169 -40
-173 -4 -4 -11 65 -14 155 -10 242 -40 398 -129 668 -115 350 -295 698 -492
950 -33 43 63 -42 154 -136z m2460 -952 c38 -117 60 -254 60 -380 0 -58 -2
-103 -5 -100 -3 2 -21 85 -40 184 -37 187 -89 397 -124 498 -12 33 -21 64 -20
70 1 23 101 -189 129 -272z m-8095 164 c-42 -130 -88 -333 -115 -500 -23 -147
-39 -189 -40 -111 -4 191 9 292 56 435 25 73 118 280 127 280 3 0 -10 -47 -28
-104z m2798 -172 c10 -4 16 -12 14 -18 -9 -24 -196 -592 -201 -611 -3 -11 -4
14 -2 55 8 160 128 600 159 586 7 -4 20 -9 30 -12z m2425 -4 c10 24 11 22 37
-35 39 -87 89 -269 120 -438 38 -212 29 -233 -24 -57 -24 80 -75 234 -112 344
-38 109 -69 200 -69 203 0 3 9 -5 19 -18 l20 -24 9 25z"/>
<path d="M8576 8590 c-3 -14 -12 -64 -21 -111 -25 -140 -73 -298 -121 -397
-76 -158 -196 -263 -389 -341 -131 -53 -155 -64 -155 -71 0 -4 24 -10 53 -13
61 -6 185 -46 266 -85 77 -37 187 -149 233 -238 39 -74 69 -169 114 -369 l28
-120 14 65 c37 173 76 322 103 385 72 173 230 297 452 355 48 13 87 27 87 32
0 5 -10 13 -22 18 -267 108 -352 165 -449 303 -68 97 -138 322 -164 527 -9 70
-21 95 -29 60z"/>
<path d="M7103 3 c37 -2 97 -2 135 0 37 2 6 3 -68 3 -74 0 -105 -1 -67 -3z"/>
</g>
</svg>
